<?xml version="1.0" encoding="UTF-8" standalone="no"?>
<!-- Created with Inkscape (http://www.inkscape.org/) -->

<svg
   width="800"
   height="800"
   viewBox="0 0 211.66667 211.66667"
   version="1.1"
   id="svg5"
   inkscape:version="1.2.2 (b0a8486541, 2022-12-01)"
   sodipodi:docname="libsemigroups_pybind11_logo.svg"
   xml:space="preserve"
   xmlns:inkscape="http://www.inkscape.org/namespaces/inkscape"
   xmlns:sodipodi="http://sodipodi.sourceforge.net/DTD/sodipodi-0.dtd"
   xmlns:xlink="http://www.w3.org/1999/xlink"
   xmlns="http://www.w3.org/2000/svg"
   xmlns:svg="http://www.w3.org/2000/svg"><sodipodi:namedview
     id="namedview7"
     pagecolor="#ffffff"
     bordercolor="#999999"
     borderopacity="1"
     inkscape:showpageshadow="0"
     inkscape:pageopacity="0"
     inkscape:pagecheckerboard="0"
     inkscape:deskcolor="#d1d1d1"
     inkscape:document-units="mm"
     showgrid="false"
     inkscape:zoom="0.81643871"
     inkscape:cx="887.39056"
     inkscape:cy="371.124"
     inkscape:window-width="1920"
     inkscape:window-height="1163"
     inkscape:window-x="0"
     inkscape:window-y="0"
     inkscape:window-maximized="1"
     inkscape:current-layer="layer1" /><defs
     id="defs2"><inkscape:path-effect
       effect="taper_stroke"
       id="path-effect10219"
       is_visible="true"
       lpeversion="1"
       stroke_width="1.2"
       attach_start="1.2"
       end_offset="0.1"
       start_smoothing="0.5"
       end_smoothing="0.5"
       jointype="extrapolated"
       start_shape="center"
       end_shape="center"
       miter_limit="100" /><inkscape:path-effect
       effect="spiro"
       id="path-effect10217"
       is_visible="true"
       lpeversion="1" /><linearGradient
       inkscape:collect="always"
       id="linearGradient930"><stop
         style="stop-color:#ffd43b;stop-opacity:1;"
         offset="0.25"
         id="stop926" /><stop
         style="stop-color:#306998;stop-opacity:1;"
         offset="0.75"
         id="stop928" /></linearGradient><linearGradient
       inkscape:collect="always"
       xlink:href="#linearGradient930"
       id="linearGradient932"
       x1="99.962746"
       y1="159.91321"
       x2="99.962746"
       y2="50.188663"
       gradientUnits="userSpaceOnUse"
       gradientTransform="translate(2.6754713e-5,6.5754164)" /></defs><g
     inkscape:groupmode="layer"
     id="layer2"
     inkscape:label="brackets"
     style="display:inline"
     transform="translate(-1.6294153,-1.3942355)"
     sodipodi:insensitive="true"><g
       id="g923"
       transform="translate(-0.46043184,9.2805831)"
       inkscape:label="braces"
       style="display:inline"><path
         id="path6827"
         style="color:#000000;fill:#306998;stroke-linecap:round;-inkscape-stroke:none"
         d="m 81.522156,51.281624 c -0.995702,-7.83e-4 -2.207295,0.01631 -3.481441,0.04754 -3.068764,-0.03842 -6.277628,-0.06669 -8.213453,-0.02997 -0.728259,0.01381 -1.317749,0.05423 -1.317749,0.05426 l -1.298112,0.245979 c -1.044938,0.295329 -2.013282,0.814553 -2.838069,1.520838 -0.186115,0.159374 -0.394987,0.376425 -0.606165,0.607198 -0.437339,0.398075 -0.861421,0.895743 -1.154968,1.25522 -2.335445,2.85999 -9.215899,11.305525 -16.278593,20.169312 -0.455304,0.571413 -1.192598,1.498528 -1.646928,2.070675 -3.872591,4.87682 -7.699272,9.757593 -10.793656,13.840498 -0.44131,0.582289 -1.153518,1.52877 -1.590084,2.1146 -1.022995,1.372763 -1.933756,2.622084 -2.717147,3.73879 -0.419592,0.598118 -1.088057,1.576378 -1.48208,2.191597 -0.01313,0.0205 -0.02623,0.04103 -0.03927,0.0615 -0.392639,0.616058 -0.722961,1.202139 -0.771013,1.288289 -0.355709,0.63776 -0.901087,1.70122 -1.081587,2.40606 -0.05412,0.21131 -0.101667,0.46037 -0.13746,0.76067 -0.04489,0.37666 -0.06528,0.87719 -0.06356,1.37408 -0.0017,0.4969 0.01867,0.99793 0.06356,1.37459 0.03579,0.30031 0.08334,0.54884 0.13746,0.76016 0.180501,0.70484 0.725879,1.76881 1.081587,2.40657 0.04805,0.0861 0.378373,0.67173 0.771013,1.28778 0.01304,0.0205 0.02614,0.041 0.03927,0.0615 0.394023,0.61521 1.062488,1.59347 1.48208,2.19159 0.783391,1.11671 1.694152,2.36655 2.717147,3.73931 0.436565,0.58583 1.148774,1.53232 1.590084,2.1146 3.094384,4.08291 6.921066,8.96317 10.793656,13.83998 0.454331,0.57215 1.191624,1.49926 1.646928,2.07068 7.062689,8.86377 13.943142,17.30983 16.278593,20.16982 0.293245,0.35911 0.717073,0.85529 1.153935,1.25316 0.211662,0.23137 0.42067,0.44954 0.607198,0.60926 0.824787,0.70629 1.793132,1.22499 2.838069,1.52032 l 1.298112,0.24598 c 0,3e-5 0.589487,0.041 1.317749,0.0548 1.93831,0.0368 5.152032,0.009 8.223788,-0.03 2.134318,0.0522 4.03547,0.0512 5.215702,0.0351 0.496696,-0.007 0.753689,-0.23634 0.730705,-0.56276 0.02445,-0.17511 -0.04278,-0.38666 -0.220142,-0.61546 -1.678755,-2.16572 -5.574375,-7.17992 -7.892024,-10.06812 -0.45727,-0.56984 -1.20764,-1.48672 -1.669666,-2.05259 -2.325615,-2.84835 -9.155364,-11.23307 -16.143717,-20.00343 -0.455308,-0.57141 -1.192624,-1.49851 -1.646928,-2.07068 -3.816545,-4.80671 -7.578758,-9.60777 -10.543543,-13.51803 -0.441427,-0.5822 -1.153992,-1.52821 -1.586983,-2.11667 -0.448962,-0.61017 -0.840052,-1.15345 -1.208712,-1.6707 -0.202549,-0.28419 -0.305106,-0.65377 -0.314193,-1.02681 0.0091,-0.37301 0.111661,-0.74265 0.314193,-1.02681 0.368661,-0.51726 0.759749,-1.06001 1.208712,-1.67018 0.432992,-0.58846 1.145557,-1.53499 1.586983,-2.11719 2.964785,-3.910259 6.726998,-8.711322 10.543543,-13.518031 0.454304,-0.57217 1.191619,-1.499266 1.646928,-2.070675 6.988353,-8.77036 13.818101,-17.155086 16.143717,-20.00343 0.462026,-0.565875 1.212396,-1.482234 1.669666,-2.052071 2.317649,-2.888199 6.213269,-7.902404 7.892024,-10.06812 0.177361,-0.228807 0.244593,-0.440872 0.220142,-0.615983 0.02285,-0.326312 -0.234125,-0.555482 -0.730705,-0.562239 -0.477845,-0.0065 -1.069038,-0.01187 -1.744596,-0.0124 z"
         inkscape:label="left brace" /><path
         id="path2602"
         style="color:#000000;fill:#ffd43b;fill-opacity:1;stroke-linecap:round;-inkscape-stroke:none"
         d="m 134.32411,51.281624 c 0.9957,-7.83e-4 2.2073,0.01631 3.48144,0.04754 3.06877,-0.03842 6.27763,-0.06669 8.21345,-0.02997 0.72826,0.01381 1.31775,0.05423 1.31775,0.05426 l 1.29812,0.245979 c 1.04493,0.295329 2.01328,0.814553 2.83806,1.520838 0.18612,0.159374 0.39499,0.376425 0.60617,0.607198 0.43734,0.398075 0.86142,0.895743 1.15497,1.25522 2.33544,2.85999 9.2159,11.305525 16.27859,20.169312 0.4553,0.571413 1.1926,1.498528 1.64693,2.070675 3.87259,4.87682 7.69927,9.757593 10.79365,13.840498 0.44131,0.582289 1.15352,1.52877 1.59009,2.1146 1.02299,1.372763 1.93375,2.622084 2.71715,3.73879 0.41959,0.598118 1.08805,1.576378 1.48208,2.191597 0.0131,0.0205 0.0262,0.04103 0.0393,0.0615 0.39264,0.616058 0.72296,1.202139 0.77101,1.288289 0.35571,0.63776 0.90109,1.70122 1.08159,2.40606 0.0541,0.21131 0.10167,0.46037 0.13746,0.76067 0.0449,0.37666 0.0653,0.87719 0.0636,1.37408 0.002,0.4969 -0.0187,0.99793 -0.0636,1.37459 -0.0358,0.30031 -0.0833,0.54884 -0.13746,0.76016 -0.1805,0.70484 -0.72588,1.76881 -1.08159,2.40657 -0.0481,0.0861 -0.37837,0.67173 -0.77101,1.28778 -0.013,0.0205 -0.0261,0.041 -0.0393,0.0615 -0.39403,0.61521 -1.06249,1.59347 -1.48208,2.19159 -0.7834,1.11671 -1.69416,2.36655 -2.71715,3.73931 -0.43657,0.58583 -1.14878,1.53232 -1.59009,2.1146 -3.09438,4.08291 -6.92106,8.96317 -10.79365,13.83998 -0.45433,0.57215 -1.19163,1.49926 -1.64693,2.07068 -7.06269,8.86377 -13.94314,17.30983 -16.27859,20.16982 -0.29325,0.35911 -0.71708,0.85529 -1.15394,1.25316 -0.21166,0.23137 -0.42067,0.44954 -0.6072,0.60926 -0.82478,0.70629 -1.79313,1.22499 -2.83806,1.52032 l -1.29812,0.24598 c 0,3e-5 -0.58948,0.041 -1.31775,0.0548 -1.93831,0.0368 -5.15203,0.009 -8.22378,-0.03 -2.13432,0.0522 -4.03547,0.0512 -5.21571,0.0351 -0.49669,-0.007 -0.75368,-0.23634 -0.7307,-0.56276 -0.0245,-0.17511 0.0428,-0.38666 0.22014,-0.61546 1.67876,-2.16572 5.57438,-7.17992 7.89203,-10.06812 0.45727,-0.56984 1.20764,-1.48672 1.66966,-2.05259 2.32562,-2.84835 9.15537,-11.23307 16.14372,-20.00343 0.45531,-0.57141 1.19262,-1.49851 1.64693,-2.07068 3.81654,-4.80671 7.57875,-9.60777 10.54354,-13.51803 0.44143,-0.5822 1.15399,-1.52821 1.58698,-2.11667 0.44896,-0.61017 0.84005,-1.15345 1.20871,-1.6707 0.20255,-0.28419 0.30511,-0.65377 0.3142,-1.02681 -0.009,-0.37301 -0.11166,-0.74265 -0.3142,-1.02681 -0.36866,-0.51726 -0.75974,-1.06001 -1.20871,-1.67018 -0.43299,-0.58846 -1.14555,-1.53499 -1.58698,-2.11719 -2.96479,-3.910259 -6.727,-8.711322 -10.54354,-13.518031 -0.45431,-0.57217 -1.19162,-1.499266 -1.64693,-2.070675 -6.98835,-8.77036 -13.8181,-17.155086 -16.14372,-20.00343 -0.46202,-0.565875 -1.21239,-1.482234 -1.66966,-2.052071 -2.31765,-2.888199 -6.21327,-7.902404 -7.89203,-10.06812 -0.17736,-0.228807 -0.24459,-0.440872 -0.22014,-0.615983 -0.0229,-0.326312 0.23412,-0.555482 0.7307,-0.562239 0.47785,-0.0065 1.06904,-0.01187 1.7446,-0.0124 z"
         inkscape:label="right brace" /></g><path
       style="color:#000000;display:inline;fill:url(#linearGradient932);fill-opacity:1;stroke-linecap:round;-inkscape-stroke:none"
       d="m 107.46278,56.772682 c 4.14213,2e-6 7.5,-0.346301 7.5,3.795833 V 162.68583 c 0,4.14213 -3.35787,3.79583 -7.5,3.79583 -4.14214,0 -7.500004,0.3463 -7.500004,-3.79583 V 60.568515 c 0,-4.142135 3.357864,-3.795833 7.500004,-3.795833 z"
       id="path6890"
       sodipodi:nodetypes="sssssss"
       inkscape:label="bar"
       transform="translate(-2.1681806e-5,2.176)" /></g><g
     inkscape:groupmode="layer"
     id="layer3"
     inkscape:label="blue snake"
     style="display:inline"
     transform="translate(17.171,2.176)"><path
       id="path1018"
       style="display:inline;fill:#306998;fill-opacity:1;fill-rule:nonzero;stroke:#306998;stroke-width:3.96875;stroke-linecap:round;stroke-dasharray:none;stroke-opacity:1"
       inkscape:label="bottom"
       d="m 28.942862,128.93631 c -2.955848,6.80172 -6.517581,15.12621 -6.555155,23.97063 v 5.2e-4 c 0.0047,5.99247 1.483694,11.78769 4.111377,16.92765 2.620776,5.12523 6.20551,9.57489 10.378178,13.21004 9.256286,8.17202 21.699312,12.5709 34.307466,11.48871 5.99532,-0.62593 11.330944,-2.2436 16.103927,-3.86488 4.80985,-1.55174 9.141009,-3.09088 13.172325,-3.64681 8.83215,-1.36012 37.82752,-2.95436 44.8293,2.59829 0.23846,-2.73259 -9.26338,-8.01373 -14.84354,-10.25673 -7.63707,-3.06981 -16.14795,-3.90494 -24.37887,-3.92793 -12.191792,-0.0341 -24.02419,6.96306 -36.141463,5.61671 -8.055613,-0.89506 -16.605237,-3.48587 -22.621358,-8.91728 -5.338905,-4.82003 -9.03236,-12.0261 -9.917741,-19.16421 -0.363946,-2.9342 1.190565,-7.75727 2.161625,-10.41177 -3.6425,-4.66561 -7.391109,-9.34002 -10.606071,-13.62294 z"
       sodipodi:nodetypes="cssccccccscssscc"
       transform="translate(-18.800437,-1.3942355)" /><path
       id="path1137"
       style="display:inline;fill:#306998;fill-opacity:1;fill-rule:nonzero;stroke:#306998;stroke-width:3.96875;stroke-linecap:round;stroke-dasharray:none;stroke-opacity:1"
       inkscape:label="top"
       d="M 64.179178,11.549403 C 51.918175,11.419359 37.920539,15.148226 29.632091,24.184306 21.796928,32.726215 19.423835,46.21293 20.546002,57.749599 c 1.065189,10.950904 14.6032,29.601671 14.6032,29.601671 0,0 6.964932,-8.819583 10.463444,-13.180075 -2.325749,-3.582801 -7.978989,-11.214935 -8.70875,-17.771242 -0.690193,-6.200821 -0.491474,-15.85721 4.339142,-18.207438 8.875145,7.92474 24.988913,11.046236 36.981142,7.296779 C 87.376392,42.627789 97.462268,34.644898 98.24874,24.835533 90.457517,15.178283 76.367997,11.678682 64.179178,11.549403 Z"
       sodipodi:nodetypes="aaaccacaca"
       transform="translate(-18.800437,-1.3942355)" /><path
       id="path2874"
       style="display:inline;fill:#ffd43b;fill-opacity:1;stroke-width:15;stroke-linecap:round"
       inkscape:label="eye"
       d="m 61.866335,20.678693 a 3.407409,3.407409 0 0 1 -3.407409,3.407408 3.407409,3.407409 0 0 1 -3.407408,-3.407408 3.407409,3.407409 0 0 1 3.407408,-3.407407 3.407409,3.407409 0 0 1 3.407409,3.407407 z"
       transform="translate(-18.800437,-1.3942355)" /><path
       style="display:inline;fill:#ffffff;stroke:#ffffff;stroke-width:0.264583px;stroke-linecap:round;stroke-linejoin:round;stroke-opacity:1"
       d="m 62.261889,37.06381 0.429752,6.584767 0.930325,-6.263545 z"
       id="path4212" /><path
       id="path8946"
       style="display:inline;fill:none;fill-opacity:1;stroke:#ff6600;stroke-width:1.676;stroke-linecap:round;stroke-linejoin:round;stroke-dasharray:none;stroke-opacity:1"
       d="m 103.37632,34.849619 c -2.95025,0.698062 -4.537398,2.252578 -6.958177,2.94993 -2.97002,0.85557 -6.064621,1.570511 -9.154001,1.476967 -2.84817,-0.08624 -8.341441,-1.869751 -8.341441,-1.869751 0,0 5.521465,1.574728 8.360174,1.912025 2.845802,0.33814 5.866409,-0.769812 8.596875,0.100523 2.199714,0.701158 4.55192,2.592907 5.69512,3.941931 0.0707,-2.197312 -4.57753,-5.010818 -4.57753,-5.010818 0,0 4.44295,-2.472727 6.37897,-3.500805 z"
       sodipodi:nodetypes="caacaacccc"
       inkscape:label="tongue"
       transform="translate(-18.800437,-1.3942355)" /></g><g
     inkscape:label="yellow snake"
     inkscape:groupmode="layer"
     id="layer1"
     style="display:inline"
     transform="translate(-1.629437,0.7817645)"><path
       id="path6518"
       style="display:inline;fill:#ffd43b;fill-opacity:1;fill-rule:nonzero;stroke:#ffd43b;stroke-width:3.96875;stroke-linecap:round;stroke-dasharray:none;stroke-opacity:1"
       inkscape:label="bottom"
       d="M 186.41594,128.88929 175.83571,142.505 c 0,0 2.36989,7.33908 2.38538,10.99519 0.0456,3.45928 -0.92624,6.9913 -2.43654,10.11825 -1.61958,3.35357 -4.05203,6.35865 -6.76445,8.88886 -6.90004,6.32233 -15.73708,9.30616 -23.33811,9.07438 -4.24513,-0.0397 -9.15114,-0.76717 -13.46326,-2.21278 -4.5537,-1.52664 -8.72997,-0.78351 -12.97181,0.0548 -4.02169,0.79478 -8.03416,2.28007 -11.39311,4.63021 -3.85138,2.69468 -8.833612,8.63945 -11.908319,12.55221 -1.600291,2.03646 -1.099476,2.55507 1.102258,1.19269 4.183121,-2.5884 10.800431,-6.35712 15.308631,-7.33702 5.20523,-1.1314 11.15349,-0.81535 15.96337,0.73639 4.77301,1.62128 10.10857,3.23895 16.10392,3.86488 12.60821,1.08219 25.05119,-3.31669 34.30747,-11.48871 4.17267,-3.63515 7.7574,-8.08481 10.37818,-13.21004 2.62768,-5.13996 4.10637,-10.93518 4.11137,-16.92765 v -5.2e-4 c -0.55866,-8.51087 -6.80475,-24.54685 -6.80475,-24.54685 z"
       sodipodi:nodetypes="ccccccssssssccccscc" /><path
       id="path3486"
       style="display:inline;fill:#ffd43b;fill-opacity:1;fill-rule:nonzero;stroke:#ffd43b;stroke-width:3.96875;stroke-linecap:round;stroke-dasharray:none;stroke-opacity:1"
       inkscape:label="top"
       d="m 150.74637,11.549403 c 12.261,-0.130044 26.25864,3.598823 34.54708,12.634903 7.83517,8.541909 10.20826,22.028624 9.08609,33.565293 -1.06519,10.950904 -14.6032,29.601671 -14.6032,29.601671 0,0 -6.96493,-8.819583 -10.46344,-13.180075 2.32575,-3.582801 7.97899,-11.214935 8.70875,-17.771242 0.69019,-6.200821 0.49147,-15.85721 -4.33914,-18.207438 -8.87515,7.92474 -24.98892,11.046236 -36.98114,7.296779 -9.15222,-2.861505 -19.23809,-10.844396 -20.02456,-20.653761 7.79122,-9.65725 21.88074,-13.156851 34.06956,-13.28613 z"
       sodipodi:nodetypes="aaaccacaca" /><path
       id="path3480"
       style="display:inline;fill:#306998;fill-opacity:1;stroke-width:15;stroke-linecap:round"
       inkscape:label="eye"
       d="m 153.05921,20.678693 a 3.407409,3.407409 0 0 0 3.40741,3.407408 3.407409,3.407409 0 0 0 3.40741,-3.407408 3.407409,3.407409 0 0 0 -3.40741,-3.407407 3.407409,3.407409 0 0 0 -3.40741,3.407407 z" /><path
       id="path3780"
       style="color:#000000;fill:#ff6600;stroke-linecap:round;stroke-linejoin:round;-inkscape-stroke:none"
       d="m 120.56427,37.53422 c 0.0428,0.04714 0.13641,0.146899 0.17947,0.193772 0.11652,0.126805 0.23415,0.252374 0.35295,0.377238 0.11879,0.124864 0.2387,0.248653 0.35967,0.371553 0.12096,0.122901 0.24283,0.244954 0.36586,0.36587 0.12304,0.120915 0.24706,0.24076 0.37207,0.359668 0.12502,0.118907 0.2513,0.23699 0.37828,0.353983 0.12697,0.116993 0.25458,0.233241 0.38344,0.348299 0.0779,0.06956 0.15707,0.137862 0.23564,0.206706 2.04429,0.259853 3.58867,0.259911 5.36388,0.04619 2.62084,-0.315527 5.0956,-1.125847 7.67655,-1.945766 2.4e-4,-7.7e-5 0.0294,-0.0078 0.0294,-0.0078 1.06809,-0.326053 0.57975,-1.929573 -0.48834,-1.60352 0,0 -4.93639,1.556044 -7.49412,1.718758 -2.56231,0.05566 -5.68329,-0.215017 -7.71475,-0.784952 z"
       sodipodi:nodetypes="cssssssscaccccc"
       inkscape:label="mouth" /><path
       fill="#f2b200"
       d="m 124.70922,38.460869 -6.36847,1.663147 0.28794,1.10257 6.36847,-1.663146 z"
       id="path7636"
       style="stroke-width:0.143548" /><path
       fill="#dce5e5"
       d="m 121.7594,39.231225 -11.74664,3.067674 0.28794,1.102571 11.74664,-3.067674 z"
       id="path7638"
       style="stroke-width:0.170483" /><path
       fill="#ff8736"
       d="m 110.01276,42.298899 -0.97977,0.255869 0.28794,1.10257 0.97977,-0.255868 z"
       id="path7640"
       style="stroke-width:0.143548" /><path
       d="m 109.67699,31.048452 c 4.16964,2.767833 -3.14629,0.415889 -0.58783,10.993667 -0.33441,-4.468434 7.93644,-8.298948 8.05456,-13.707973 0.17438,-7.485995 -14.35806,-1.871253 -7.46673,2.714306 z"
       fill="#abc2c6"
       id="path7642"
       style="stroke-width:0.253156;opacity:0.60396527" /></g></svg>
