<?xml version="1.0" encoding="UTF-8" standalone="no"?>
<!-- Created with Inkscape (http://www.inkscape.org/) -->

<svg
   width="3111.9507"
   height="400"
   viewBox="0 0 823.37029 105.83333"
   version="1.1"
   id="svg406"
   xml:space="preserve"
   inkscape:version="1.2.2 (b0a8486541, 2022-12-01)"
   sodipodi:docname="libsemigroups_pybind11_banner.svg"
   xmlns:inkscape="http://www.inkscape.org/namespaces/inkscape"
   xmlns:sodipodi="http://sodipodi.sourceforge.net/DTD/sodipodi-0.dtd"
   xmlns:xlink="http://www.w3.org/1999/xlink"
   xmlns="http://www.w3.org/2000/svg"
   xmlns:svg="http://www.w3.org/2000/svg"><sodipodi:namedview
     id="namedview408"
     pagecolor="#ffffff"
     bordercolor="#999999"
     borderopacity="1"
     inkscape:showpageshadow="0"
     inkscape:pageopacity="0"
     inkscape:pagecheckerboard="0"
     inkscape:deskcolor="#d1d1d1"
     inkscape:document-units="mm"
     showgrid="false"
     inkscape:zoom="1.346682"
     inkscape:cx="613.35935"
     inkscape:cy="182.67119"
     inkscape:window-width="1920"
     inkscape:window-height="1131"
     inkscape:window-x="0"
     inkscape:window-y="0"
     inkscape:window-maximized="1"
     inkscape:current-layer="layer4" /><defs
     id="defs403"><inkscape:path-effect
       effect="taper_stroke"
       id="path-effect10219"
       is_visible="true"
       lpeversion="1"
       stroke_width="1.2"
       attach_start="1.2"
       end_offset="0.1"
       start_smoothing="0.5"
       end_smoothing="0.5"
       jointype="extrapolated"
       start_shape="center"
       end_shape="center"
       miter_limit="100" /><inkscape:path-effect
       effect="spiro"
       id="path-effect10217"
       is_visible="true"
       lpeversion="1" /><linearGradient
       inkscape:collect="always"
       id="linearGradient930"><stop
         style="stop-color:#ffd43b;stop-opacity:1;"
         offset="0.25"
         id="stop926" /><stop
         style="stop-color:#306998;stop-opacity:1;"
         offset="0.75"
         id="stop928" /></linearGradient><linearGradient
       inkscape:collect="always"
       xlink:href="#linearGradient930"
       id="linearGradient932"
       x1="99.962746"
       y1="159.91321"
       x2="99.962746"
       y2="50.188663"
       gradientUnits="userSpaceOnUse"
       gradientTransform="translate(2.6754713e-5,6.5754164)" /></defs><g
     inkscape:groupmode="layer"
     id="layer4"
     inkscape:label="text"><g
       aria-label="libsemigroups_pybind11"
       id="text1505"
       style="font-size:57.5841px;font-family:'Ubuntu Mono';-inkscape-font-specification:'Ubuntu Mono, Normal';text-align:center;text-anchor:middle;display:inline;opacity:1;fill:#306998;stroke-width:18.1186;stroke-linecap:round;stroke-linejoin:round"><path
         d="m 140.30841,74.333084 q -3.80055,0 -5.816,-1.324435 -2.01544,-1.382018 -2.82162,-4.030886 -0.74859,-2.648869 -0.74859,-6.679756 V 33.160453 h -8.81037 v -3.915719 h 13.18676 v 32.880521 q 0,3.224709 0.51826,5.009816 0.57584,1.727523 1.66994,2.418533 1.09409,0.633425 2.82162,0.633425 1.7851,0 3.33987,-0.403089 1.61236,-0.403089 2.70646,-0.97893 l 0.63342,3.915719 q -0.80617,0.460673 -2.76403,1.036514 -1.95786,0.575841 -3.91572,0.575841 z"
         id="path318" /><path
         d="m 172.55547,74.333084 q -3.68538,0 -5.75841,-1.324435 -2.01544,-1.324434 -2.82162,-3.915718 -0.80618,-2.648869 -0.80618,-6.679756 V 47.671646 h -8.81037 v -3.858135 h 13.18676 v 18.311744 q 0,3.282293 0.57584,5.067401 0.63343,1.727522 1.78511,2.360948 1.20927,0.633425 2.82162,0.633425 2.07303,0 3.6278,-0.518257 1.61235,-0.518257 2.24578,-0.863762 l 0.63343,3.915719 q -0.11517,0.115168 -1.0941,0.518257 -0.92135,0.403089 -2.41853,0.748593 -1.43961,0.345505 -3.16713,0.345505 z m -8.46486,-35.414221 q -1.61236,0 -2.76404,-1.094098 -1.15168,-1.151682 -1.15168,-2.994373 0,-1.900275 1.15168,-2.994373 1.15168,-1.094098 2.76404,-1.094098 1.66994,0 2.76403,1.094098 1.0941,1.094098 1.0941,2.994373 0,1.842691 -1.0941,2.994373 -1.09409,1.094098 -2.76403,1.094098 z"
         id="path320" /><path
         d="m 198.06519,74.333084 q -3.68538,0 -6.33425,-0.575841 -2.59128,-0.518257 -4.14605,-0.97893 V 29.762991 l 4.54914,-0.806177 v 16.065963 q 0.80618,-0.518256 2.70645,-1.209266 1.90028,-0.691009 4.37639,-0.691009 4.03089,0 6.96768,2.015444 2.93679,1.957859 4.49156,5.470489 1.61236,3.51263 1.61236,8.119358 0,4.837064 -1.8427,8.349694 -1.7851,3.455046 -5.00981,5.355322 -3.16713,1.900275 -7.37077,1.900275 z m -0.80617,-4.030887 q 4.77948,0 7.54351,-2.936789 2.76404,-2.994373 2.76404,-8.580031 0,-3.224709 -0.86376,-5.815994 -0.86376,-2.648868 -2.82162,-4.203639 -1.90028,-1.554771 -5.00982,-1.554771 -1.95786,0 -3.91572,0.863762 -1.90027,0.806177 -2.82162,1.727523 v 19.693761 q 1.32443,0.403089 2.59129,0.633426 1.32443,0.172752 2.5337,0.172752 z"
         id="path322" /><path
         d="m 229.96675,74.333084 q -2.82162,0 -5.35532,-0.460673 -2.5337,-0.403089 -5.0674,-1.497187 l 0.97893,-4.261223 q 2.24578,1.094098 4.72189,1.727523 2.53371,0.633425 5.41291,0.633425 3.80055,0 5.70083,-0.97893 1.90027,-1.036513 1.90027,-3.167125 0,-1.554771 -1.20926,-2.591284 -1.15169,-1.094098 -3.05196,-1.900276 -1.84269,-0.806177 -3.9733,-1.497186 -1.78511,-0.633425 -3.57022,-1.382019 -1.78511,-0.806177 -3.22471,-1.785107 -1.4396,-1.036513 -2.30336,-2.476116 -0.86376,-1.439602 -0.86376,-3.397462 0,-2.360948 1.26685,-4.203639 1.32443,-1.842691 3.9733,-2.879205 2.64887,-1.094098 6.67975,-1.094098 2.36095,0 4.95224,0.345505 2.59128,0.345504 4.37639,0.806177 l -0.80618,4.203639 q -0.69101,-0.460672 -2.13061,-0.748593 -1.38202,-0.345504 -3.05196,-0.518257 -1.66994,-0.230336 -3.28229,-0.230336 -3.68538,0 -5.64324,0.97893 -1.90028,0.978929 -1.90028,3.282293 0,1.209266 0.97893,2.130612 0.97893,0.863761 2.59129,1.55477 1.61235,0.633426 3.51263,1.324435 1.95786,0.748593 3.91571,1.612355 2.01545,0.806177 3.68539,1.900275 1.66994,1.094098 2.64887,2.648868 1.03651,1.497187 1.03651,3.570214 0,2.764037 -1.4396,4.664312 -1.38202,1.842692 -4.26123,2.764037 -2.82162,0.921346 -7.19801,0.921346 z"
         id="path324" /><path
         d="m 265.26577,74.333084 q -5.24015,0 -8.63761,-2.073028 -3.33988,-2.130611 -4.95224,-5.700826 -1.61235,-3.570214 -1.61235,-7.831437 0,-3.973303 1.20926,-6.910092 1.20927,-2.936789 3.22471,-4.837064 2.07303,-1.95786 4.54915,-2.879205 2.47611,-0.97893 5.0674,-0.97893 5.81599,0 9.09829,3.742967 3.28229,3.685382 3.28229,11.401651 0,0.230337 0,0.691009 0,0.460673 0,0.863762 h -21.93954 q 0.46067,5.124985 3.28229,7.773853 2.87921,2.591285 8.11936,2.591285 2.93679,0 4.89465,-0.460673 1.95786,-0.460673 2.82162,-0.863762 l 0.63342,3.800551 q -0.691,0.518257 -3.28229,1.094098 -2.5337,0.575841 -5.75841,0.575841 z M 254.72788,55.848588 h 16.98731 q 0,-2.821621 -1.03651,-4.77948 -0.97893,-1.95786 -2.70646,-2.994373 -1.72752,-1.094098 -3.9733,-1.094098 -2.59128,0 -4.60673,1.324434 -1.95786,1.26685 -3.16712,3.339878 -1.20927,2.015443 -1.49719,4.203639 z"
         id="path326" /><path
         d="m 282.42581,73.642075 v -29.07997 q 1.72752,-0.748594 3.33987,-1.094098 1.66994,-0.403089 3.2823,-0.403089 2.01544,0 3.74297,0.575841 1.72752,0.575841 2.93678,1.842691 1.49719,-1.209266 2.99438,-1.785107 1.49718,-0.633425 2.99437,-0.633425 1.66994,0 3.39746,0.921346 1.78511,0.921345 2.99438,2.764036 1.26685,1.842692 1.26685,4.606728 v 22.285047 h -4.3764 V 51.357028 q 0,-1.324434 -0.51825,-2.360948 -0.46068,-1.036513 -1.38202,-1.612354 -0.86376,-0.575841 -2.01544,-0.575841 -0.80618,0 -1.72753,0.518256 -0.86376,0.460673 -1.66994,1.439603 0.23034,0.575841 0.28792,1.209266 0.11517,0.633425 0.11517,1.26685 v 10.883395 h -4.37639 V 51.414612 q 0,-2.015443 -0.80618,-3.282293 -0.74859,-1.324434 -2.99437,-1.324434 -0.63342,0 -1.4396,0.172752 -0.7486,0.172752 -1.66994,0.460673 v 26.200765 z"
         id="path328" /><path
         d="m 333.79078,74.333084 q -3.68538,0 -5.75841,-1.324435 -2.01544,-1.324434 -2.82162,-3.915718 -0.80617,-2.648869 -0.80617,-6.679756 V 47.671646 h -8.81037 v -3.858135 h 13.18676 v 18.311744 q 0,3.282293 0.57584,5.067401 0.63342,1.727522 1.7851,2.360948 1.20927,0.633425 2.82163,0.633425 2.07302,0 3.62779,-0.518257 1.61236,-0.518257 2.24578,-0.863762 l 0.63343,3.915719 q -0.11517,0.115168 -1.0941,0.518257 -0.92134,0.403089 -2.41853,0.748593 -1.4396,0.345505 -3.16713,0.345505 z m -8.46486,-35.414221 q -1.61235,0 -2.76404,-1.094098 -1.15168,-1.151682 -1.15168,-2.994373 0,-1.900275 1.15168,-2.994373 1.15169,-1.094098 2.76404,-1.094098 1.66994,0 2.76404,1.094098 1.0941,1.094098 1.0941,2.994373 0,1.842691 -1.0941,2.994373 -1.0941,1.094098 -2.76404,1.094098 z"
         id="path330" /><path
         d="m 357.68814,84.467885 q -2.82162,0 -5.18257,-0.460673 -2.30336,-0.403088 -3.85813,-0.978929 l 0.74859,-4.030887 q 1.66994,0.691009 3.80055,1.094098 2.1882,0.403088 4.60673,0.403088 3.16713,0 5.18257,-0.863761 2.07303,-0.806178 3.05196,-2.706453 0.97893,-1.842691 0.97893,-4.894648 v -0.97893 q -0.69101,0.403089 -2.76404,1.094098 -2.01544,0.691009 -4.72189,0.691009 -3.33988,0 -6.27667,-1.497186 -2.93679,-1.554771 -4.7219,-4.779481 -1.7851,-3.282293 -1.7851,-8.349694 0,-4.146055 1.55477,-7.543517 1.55477,-3.455046 4.54914,-5.470489 3.05196,-2.073028 7.37076,-2.073028 4.14606,0 6.96768,0.575841 2.82162,0.575841 4.31881,1.036514 v 27.006942 q 0,6.794924 -3.51263,9.731713 -3.45505,2.994373 -10.30756,2.994373 z M 359.646,68.632258 q 2.1882,0 4.20364,-0.633425 2.01545,-0.633425 3.16713,-1.497187 V 48.132319 q -0.7486,-0.287921 -2.36095,-0.518257 -1.55477,-0.287921 -4.26122,-0.287921 -4.26123,0 -6.62217,3.051958 -2.30337,3.051957 -2.30337,7.889021 0,3.685383 1.20927,5.988746 1.20926,2.303364 3.05195,3.339878 1.90028,1.036514 3.91572,1.036514 z"
         id="path332" /><path
         d="M 383.54338,73.642075 V 45.310698 q 3.28229,-1.036514 6.56459,-1.612355 3.33987,-0.575841 6.44942,-0.575841 1.49718,0 2.64886,0.05758 1.15169,0.05758 2.30337,0.230337 1.15168,0.172752 2.64887,0.460672 l -0.80618,3.858135 q -1.4396,-0.403089 -2.5337,-0.575841 -1.03651,-0.172752 -2.07303,-0.172752 -0.97893,-0.05758 -2.30336,-0.05758 -2.13061,0 -4.26123,0.28792 -2.07302,0.287921 -4.14605,0.921346 v 25.509756 z"
         id="path334" /><path
         d="m 424.54323,74.2755 q -3.80055,0 -6.79492,-1.900276 -2.93679,-1.957859 -4.66431,-5.412905 -1.72753,-3.51263 -1.72753,-8.234526 0,-4.721896 1.66994,-8.176942 1.72753,-3.51263 4.7219,-5.470489 2.99437,-1.95786 6.79492,-1.95786 3.91572,0 6.91009,1.95786 3.05196,1.957859 4.77948,5.470489 1.72753,3.455046 1.72753,8.176942 0,4.721896 -1.72753,8.234526 -1.72752,3.455046 -4.77948,5.412905 -2.99437,1.900276 -6.91009,1.900276 z m 0.0576,-4.146055 q 3.91572,0 6.27666,-2.994374 2.41854,-3.051957 2.41854,-8.407278 0,-5.355321 -2.41854,-8.407278 -2.41853,-3.109542 -6.33425,-3.109542 -3.80055,0 -6.1615,3.109542 -2.36094,3.051957 -2.36094,8.407278 0,5.355321 2.41853,8.407278 2.41853,2.994374 6.1615,2.994374 z"
         id="path336" /><path
         d="m 457.13581,74.2755 q -4.31881,0 -6.91009,-1.727523 -2.59129,-1.727523 -3.74297,-4.77948 -1.15168,-3.109542 -1.15168,-7.082845 V 43.813511 h 4.49156 v 15.605291 q 0,5.931162 1.84269,8.349695 1.84269,2.418532 5.98874,2.418532 2.01545,0 3.85814,-0.230337 1.84269,-0.230336 2.24578,-0.403088 V 43.813511 h 4.49156 v 29.022386 q -1.61236,0.403089 -4.43398,0.921346 -2.76403,0.518257 -6.67975,0.518257 z"
         id="path338" /><path
         d="M 477.80844,84.295133 V 44.734857 q 1.61236,-0.460673 4.20364,-0.97893 2.59129,-0.575841 6.27667,-0.575841 4.20364,0 7.37076,1.900276 3.22471,1.842691 5.00982,5.355321 1.84269,3.51263 1.84269,8.349694 0,4.49156 -1.61235,8.00419 -1.55477,3.51263 -4.49156,5.528073 -2.93679,2.015444 -6.96768,2.015444 -2.64887,0 -4.54914,-0.633425 Q 483.0486,73.066234 482.3,72.375224 v 11.919909 z m 11.28649,-14.165688 q 3.10954,0 5.00981,-1.497187 1.95786,-1.554771 2.82162,-4.146055 0.92135,-2.591285 0.92135,-5.75841 0,-5.585658 -2.70645,-8.522447 -2.70646,-2.936789 -6.79493,-2.936789 -2.59128,0 -3.9733,0.230337 -1.38202,0.230336 -2.07303,0.518257 v 19.578593 q 0.97893,0.921346 2.87921,1.727523 1.95786,0.806178 3.91572,0.806178 z"
         id="path340" /><path
         d="m 520.19032,74.333084 q -2.82163,0 -5.35533,-0.460673 -2.5337,-0.403089 -5.0674,-1.497187 l 0.97893,-4.261223 q 2.24578,1.094098 4.7219,1.727523 2.5337,0.633425 5.4129,0.633425 3.80055,0 5.70083,-0.97893 1.90028,-1.036513 1.90028,-3.167125 0,-1.554771 -1.20927,-2.591284 -1.15168,-1.094098 -3.05196,-1.900276 -1.84269,-0.806177 -3.9733,-1.497186 -1.78511,-0.633425 -3.57021,-1.382019 -1.78511,-0.806177 -3.22471,-1.785107 -1.43961,-1.036513 -2.30337,-2.476116 -0.86376,-1.439602 -0.86376,-3.397462 0,-2.360948 1.26685,-4.203639 1.32443,-1.842691 3.9733,-2.879205 2.64887,-1.094098 6.67976,-1.094098 2.36095,0 4.95223,0.345505 2.59129,0.345504 4.37639,0.806177 l -0.80617,4.203639 q -0.69101,-0.460672 -2.13062,-0.748593 -1.38201,-0.345504 -3.05195,-0.518257 -1.66994,-0.230336 -3.2823,-0.230336 -3.68538,0 -5.64324,0.97893 -1.90027,0.978929 -1.90027,3.282293 0,1.209266 0.97893,2.130612 0.97893,0.863761 2.59128,1.55477 1.61235,0.633426 3.51263,1.324435 1.95786,0.748593 3.91572,1.612355 2.01544,0.806177 3.68538,1.900275 1.66994,1.094098 2.64887,2.648868 1.03651,1.497187 1.03651,3.570214 0,2.764037 -1.4396,4.664312 -1.38202,1.842692 -4.26122,2.764037 -2.82162,0.921346 -7.19801,0.921346 z"
         id="path342" /><path
         d="m 538.04136,84.295133 v -3.858135 h 31.21058 v 3.858135 z"
         id="path344" /><path
         d="M 574.54962,84.295133 V 44.734857 q 1.61236,-0.460673 4.20364,-0.97893 2.59129,-0.575841 6.27667,-0.575841 4.20364,0 7.37076,1.900276 3.22471,1.842691 5.00982,5.355321 1.84269,3.51263 1.84269,8.349694 0,4.49156 -1.61235,8.00419 -1.55477,3.51263 -4.49156,5.528073 -2.93679,2.015444 -6.96768,2.015444 -2.64887,0 -4.54914,-0.633425 -1.84269,-0.633425 -2.59129,-1.324435 v 11.919909 z m 11.28649,-14.165688 q 3.10954,0 5.00981,-1.497187 1.95786,-1.554771 2.82162,-4.146055 0.92135,-2.591285 0.92135,-5.75841 0,-5.585658 -2.70645,-8.522447 -2.70646,-2.936789 -6.79493,-2.936789 -2.59128,0 -3.9733,0.230337 -1.38202,0.230336 -2.07303,0.518257 v 19.578593 q 0.97893,0.921346 2.87921,1.727523 1.95786,0.806178 3.91572,0.806178 z"
         id="path346" /><path
         d="m 608.75455,84.467885 q -0.92134,0 -2.36094,-0.345504 -1.38202,-0.287921 -1.78511,-0.518257 l 0.86376,-3.627799 q 0.40309,0.230337 1.4396,0.460673 1.0941,0.230337 1.95786,0.230337 3.39746,0 5.24015,-1.382019 1.90028,-1.324434 3.57022,-4.77948 -3.85814,-7.198012 -7.08285,-15.202202 -3.2247,-8.00419 -5.24015,-15.490123 h 5.0674 q 0.86376,3.455046 2.1882,7.773854 1.32443,4.261223 3.05196,8.810367 1.7851,4.49156 3.80055,8.637615 1.61235,-4.318808 2.76403,-8.176942 1.15168,-3.915719 2.1882,-8.00419 1.0941,-4.146055 2.36095,-9.040704 h 4.72189 q -1.95786,8.292111 -4.54914,16.238716 -2.59129,7.946606 -5.35532,14.511193 -1.4396,3.455046 -3.22471,5.643242 -1.78511,2.188196 -4.14606,3.224709 -2.30336,1.036514 -5.47049,1.036514 z"
         id="path348" /><path
         d="m 649.52407,74.333084 q -3.68538,0 -6.33425,-0.575841 -2.59128,-0.518257 -4.14606,-0.97893 V 29.762991 l 4.54915,-0.806177 v 16.065963 q 0.80618,-0.518256 2.70645,-1.209266 1.90028,-0.691009 4.37639,-0.691009 4.03089,0 6.96768,2.015444 2.93679,1.957859 4.49156,5.470489 1.61235,3.51263 1.61235,8.119358 0,4.837064 -1.84269,8.349694 -1.78511,3.455046 -5.00981,5.355322 -3.16713,1.900275 -7.37077,1.900275 z m -0.80618,-4.030887 q 4.77948,0 7.54352,-2.936789 2.76404,-2.994373 2.76404,-8.580031 0,-3.224709 -0.86376,-5.815994 -0.86377,-2.648868 -2.82163,-4.203639 -1.90027,-1.554771 -5.00981,-1.554771 -1.95786,0 -3.91572,0.863762 -1.90028,0.806177 -2.82162,1.727523 v 19.693761 q 1.32443,0.403089 2.59128,0.633426 1.32444,0.172752 2.5337,0.172752 z"
         id="path350" /><path
         d="m 688.50848,74.333084 q -3.68538,0 -5.75841,-1.324435 -2.01544,-1.324434 -2.82162,-3.915718 -0.80618,-2.648869 -0.80618,-6.679756 V 47.671646 h -8.81036 v -3.858135 h 13.18675 v 18.311744 q 0,3.282293 0.57584,5.067401 0.63343,1.727522 1.78511,2.360948 1.20927,0.633425 2.82162,0.633425 2.07303,0 3.6278,-0.518257 1.61236,-0.518257 2.24578,-0.863762 l 0.63343,3.915719 q -0.11517,0.115168 -1.0941,0.518257 -0.92135,0.403089 -2.41853,0.748593 -1.43961,0.345505 -3.16713,0.345505 z m -8.46486,-35.414221 q -1.61236,0 -2.76404,-1.094098 -1.15168,-1.151682 -1.15168,-2.994373 0,-1.900275 1.15168,-2.994373 1.15168,-1.094098 2.76404,-1.094098 1.66994,0 2.76403,1.094098 1.0941,1.094098 1.0941,2.994373 0,1.842691 -1.0941,2.994373 -1.09409,1.094098 -2.76403,1.094098 z"
         id="path352" /><path
         d="M 703.53791,73.642075 V 44.619689 q 3.05195,-0.806178 5.87357,-1.094098 2.82162,-0.345505 4.95224,-0.345505 3.74296,0 6.44941,1.26685 2.70646,1.209267 4.14606,4.030887 1.49719,2.764037 1.49719,7.485933 v 17.678319 h -4.49156 V 56.885102 q 0,-4.146055 -1.03652,-6.161499 -1.03651,-2.073027 -2.82162,-2.764036 -1.72752,-0.69101 -3.91572,-0.69101 -1.4396,0 -3.05195,0.172753 -1.61236,0.172752 -3.10955,0.460672 v 25.740093 z"
         id="path354" /><path
         d="m 748.10797,74.333084 q -4.14605,0 -7.37076,-1.900275 -3.22471,-1.900276 -5.0674,-5.412906 -1.84269,-3.51263 -1.84269,-8.349694 0,-4.549144 1.61235,-8.00419 1.61236,-3.51263 4.54914,-5.528073 2.93679,-2.015444 6.9101,-2.015444 2.59128,0 4.43397,0.633425 1.90028,0.633425 2.76404,1.26685 V 29.762991 l 4.49156,-0.806177 v 43.821499 q -1.55477,0.460673 -4.14606,0.97893 -2.59128,0.575841 -6.33425,0.575841 z m -0.0576,-4.203639 q 2.30336,0 3.85813,-0.172753 1.61236,-0.230336 2.1882,-0.460673 V 49.802258 q -0.92135,-0.921346 -2.82162,-1.727523 -1.90028,-0.863762 -3.9733,-0.863762 -3.10955,0 -5.06741,1.554771 -1.90027,1.554771 -2.82162,4.203639 -0.86376,2.591285 -0.86376,5.815994 0,5.585658 2.70645,8.464863 2.76404,2.879205 6.79493,2.879205 z"
         id="path356" /><path
         d="M 770.50816,73.642075 V 69.78394 h 8.6952 V 40.070545 q -1.26685,1.26685 -3.91572,2.706453 -2.59128,1.439602 -5.29773,2.418532 l -1.38202,-3.22471 q 2.24578,-0.863761 4.26122,-1.957859 2.01544,-1.151682 3.91572,-2.648869 1.90027,-1.55477 3.68538,-3.627798 h 3.22471 V 69.78394 h 7.42835 v 3.858135 z"
         id="path358" /><path
         d="M 802.75517,73.642075 V 69.78394 h 8.6952 V 40.070545 q -1.26685,1.26685 -3.91572,2.706453 -2.59128,1.439602 -5.29774,2.418532 l -1.38201,-3.22471 q 2.24578,-0.863761 4.26122,-1.957859 2.01544,-1.151682 3.91572,-2.648869 1.90027,-1.55477 3.68538,-3.627798 h 3.22471 V 69.78394 h 7.42835 v 3.858135 z"
         id="path360" /></g></g><g
     id="g5858"
     transform="matrix(0.55415981,0,0,0.55415981,-9.2345131,-5.7319124)"
     inkscape:label="logo"><g
       id="layer2"
       inkscape:label="brackets"
       style="display:inline"
       transform="translate(-1.6294153,-1.3942355)"><g
         id="g923"
         transform="translate(-0.46043184,9.2805831)"
         inkscape:label="braces"
         style="display:inline"><path
           id="path6827"
           style="color:#000000;fill:#306998;stroke-linecap:round;-inkscape-stroke:none"
           d="m 81.522156,51.281624 c -0.995702,-7.83e-4 -2.207295,0.01631 -3.481441,0.04754 -3.068764,-0.03842 -6.277628,-0.06669 -8.213453,-0.02997 -0.728259,0.01381 -1.317749,0.05423 -1.317749,0.05426 l -1.298112,0.245979 c -1.044938,0.295329 -2.013282,0.814553 -2.838069,1.520838 -0.186115,0.159374 -0.394987,0.376425 -0.606165,0.607198 -0.437339,0.398075 -0.861421,0.895743 -1.154968,1.25522 -2.335445,2.85999 -9.215899,11.305525 -16.278593,20.169312 -0.455304,0.571413 -1.192598,1.498528 -1.646928,2.070675 -3.872591,4.87682 -7.699272,9.757593 -10.793656,13.840498 -0.44131,0.582289 -1.153518,1.52877 -1.590084,2.1146 -1.022995,1.372763 -1.933756,2.622084 -2.717147,3.73879 -0.419592,0.598118 -1.088057,1.576378 -1.48208,2.191597 -0.01313,0.0205 -0.02623,0.04103 -0.03927,0.0615 -0.392639,0.616058 -0.722961,1.202139 -0.771013,1.288289 -0.355709,0.63776 -0.901087,1.70122 -1.081587,2.40606 -0.05412,0.21131 -0.101667,0.46037 -0.13746,0.76067 -0.04489,0.37666 -0.06528,0.87719 -0.06356,1.37408 -0.0017,0.4969 0.01867,0.99793 0.06356,1.37459 0.03579,0.30031 0.08334,0.54884 0.13746,0.76016 0.180501,0.70484 0.725879,1.76881 1.081587,2.40657 0.04805,0.0861 0.378373,0.67173 0.771013,1.28778 0.01304,0.0205 0.02614,0.041 0.03927,0.0615 0.394023,0.61521 1.062488,1.59347 1.48208,2.19159 0.783391,1.11671 1.694152,2.36655 2.717147,3.73931 0.436565,0.58583 1.148774,1.53232 1.590084,2.1146 3.094384,4.08291 6.921066,8.96317 10.793656,13.83998 0.454331,0.57215 1.191624,1.49926 1.646928,2.07068 7.062689,8.86377 13.943142,17.30983 16.278593,20.16982 0.293245,0.35911 0.717073,0.85529 1.153935,1.25316 0.211662,0.23137 0.42067,0.44954 0.607198,0.60926 0.824787,0.70629 1.793132,1.22499 2.838069,1.52032 l 1.298112,0.24598 c 0,3e-5 0.589487,0.041 1.317749,0.0548 1.93831,0.0368 5.152032,0.009 8.223788,-0.03 2.134318,0.0522 4.03547,0.0512 5.215702,0.0351 0.496696,-0.007 0.753689,-0.23634 0.730705,-0.56276 0.02445,-0.17511 -0.04278,-0.38666 -0.220142,-0.61546 -1.678755,-2.16572 -5.574375,-7.17992 -7.892024,-10.06812 -0.45727,-0.56984 -1.20764,-1.48672 -1.669666,-2.05259 -2.325615,-2.84835 -9.155364,-11.23307 -16.143717,-20.00343 -0.455308,-0.57141 -1.192624,-1.49851 -1.646928,-2.07068 -3.816545,-4.80671 -7.578758,-9.60777 -10.543543,-13.51803 -0.441427,-0.5822 -1.153992,-1.52821 -1.586983,-2.11667 -0.448962,-0.61017 -0.840052,-1.15345 -1.208712,-1.6707 -0.202549,-0.28419 -0.305106,-0.65377 -0.314193,-1.02681 0.0091,-0.37301 0.111661,-0.74265 0.314193,-1.02681 0.368661,-0.51726 0.759749,-1.06001 1.208712,-1.67018 0.432992,-0.58846 1.145557,-1.53499 1.586983,-2.11719 2.964785,-3.910259 6.726998,-8.711322 10.543543,-13.518031 0.454304,-0.57217 1.191619,-1.499266 1.646928,-2.070675 6.988353,-8.77036 13.818101,-17.155086 16.143717,-20.00343 0.462026,-0.565875 1.212396,-1.482234 1.669666,-2.052071 2.317649,-2.888199 6.213269,-7.902404 7.892024,-10.06812 0.177361,-0.228807 0.244593,-0.440872 0.220142,-0.615983 0.02285,-0.326312 -0.234125,-0.555482 -0.730705,-0.562239 -0.477845,-0.0065 -1.069038,-0.01187 -1.744596,-0.0124 z"
           inkscape:label="left brace" /><path
           id="path2602"
           style="color:#000000;fill:#ffd43b;fill-opacity:1;stroke-linecap:round;-inkscape-stroke:none"
           d="m 134.32411,51.281624 c 0.9957,-7.83e-4 2.2073,0.01631 3.48144,0.04754 3.06877,-0.03842 6.27763,-0.06669 8.21345,-0.02997 0.72826,0.01381 1.31775,0.05423 1.31775,0.05426 l 1.29812,0.245979 c 1.04493,0.295329 2.01328,0.814553 2.83806,1.520838 0.18612,0.159374 0.39499,0.376425 0.60617,0.607198 0.43734,0.398075 0.86142,0.895743 1.15497,1.25522 2.33544,2.85999 9.2159,11.305525 16.27859,20.169312 0.4553,0.571413 1.1926,1.498528 1.64693,2.070675 3.87259,4.87682 7.69927,9.757593 10.79365,13.840498 0.44131,0.582289 1.15352,1.52877 1.59009,2.1146 1.02299,1.372763 1.93375,2.622084 2.71715,3.73879 0.41959,0.598118 1.08805,1.576378 1.48208,2.191597 0.0131,0.0205 0.0262,0.04103 0.0393,0.0615 0.39264,0.616058 0.72296,1.202139 0.77101,1.288289 0.35571,0.63776 0.90109,1.70122 1.08159,2.40606 0.0541,0.21131 0.10167,0.46037 0.13746,0.76067 0.0449,0.37666 0.0653,0.87719 0.0636,1.37408 0.002,0.4969 -0.0187,0.99793 -0.0636,1.37459 -0.0358,0.30031 -0.0833,0.54884 -0.13746,0.76016 -0.1805,0.70484 -0.72588,1.76881 -1.08159,2.40657 -0.0481,0.0861 -0.37837,0.67173 -0.77101,1.28778 -0.013,0.0205 -0.0261,0.041 -0.0393,0.0615 -0.39403,0.61521 -1.06249,1.59347 -1.48208,2.19159 -0.7834,1.11671 -1.69416,2.36655 -2.71715,3.73931 -0.43657,0.58583 -1.14878,1.53232 -1.59009,2.1146 -3.09438,4.08291 -6.92106,8.96317 -10.79365,13.83998 -0.45433,0.57215 -1.19163,1.49926 -1.64693,2.07068 -7.06269,8.86377 -13.94314,17.30983 -16.27859,20.16982 -0.29325,0.35911 -0.71708,0.85529 -1.15394,1.25316 -0.21166,0.23137 -0.42067,0.44954 -0.6072,0.60926 -0.82478,0.70629 -1.79313,1.22499 -2.83806,1.52032 l -1.29812,0.24598 c 0,3e-5 -0.58948,0.041 -1.31775,0.0548 -1.93831,0.0368 -5.15203,0.009 -8.22378,-0.03 -2.13432,0.0522 -4.03547,0.0512 -5.21571,0.0351 -0.49669,-0.007 -0.75368,-0.23634 -0.7307,-0.56276 -0.0245,-0.17511 0.0428,-0.38666 0.22014,-0.61546 1.67876,-2.16572 5.57438,-7.17992 7.89203,-10.06812 0.45727,-0.56984 1.20764,-1.48672 1.66966,-2.05259 2.32562,-2.84835 9.15537,-11.23307 16.14372,-20.00343 0.45531,-0.57141 1.19262,-1.49851 1.64693,-2.07068 3.81654,-4.80671 7.57875,-9.60777 10.54354,-13.51803 0.44143,-0.5822 1.15399,-1.52821 1.58698,-2.11667 0.44896,-0.61017 0.84005,-1.15345 1.20871,-1.6707 0.20255,-0.28419 0.30511,-0.65377 0.3142,-1.02681 -0.009,-0.37301 -0.11166,-0.74265 -0.3142,-1.02681 -0.36866,-0.51726 -0.75974,-1.06001 -1.20871,-1.67018 -0.43299,-0.58846 -1.14555,-1.53499 -1.58698,-2.11719 -2.96479,-3.910259 -6.727,-8.711322 -10.54354,-13.518031 -0.45431,-0.57217 -1.19162,-1.499266 -1.64693,-2.070675 -6.98835,-8.77036 -13.8181,-17.155086 -16.14372,-20.00343 -0.46202,-0.565875 -1.21239,-1.482234 -1.66966,-2.052071 -2.31765,-2.888199 -6.21327,-7.902404 -7.89203,-10.06812 -0.17736,-0.228807 -0.24459,-0.440872 -0.22014,-0.615983 -0.0229,-0.326312 0.23412,-0.555482 0.7307,-0.562239 0.47785,-0.0065 1.06904,-0.01187 1.7446,-0.0124 z"
           inkscape:label="right brace" /></g><path
         style="color:#000000;display:inline;fill:url(#linearGradient932);fill-opacity:1;stroke-linecap:round;-inkscape-stroke:none"
         d="m 107.46278,56.772682 c 4.14213,2e-6 7.5,-0.346301 7.5,3.795833 V 162.68583 c 0,4.14213 -3.35787,3.79583 -7.5,3.79583 -4.14214,0 -7.500004,0.3463 -7.500004,-3.79583 V 60.568515 c 0,-4.142135 3.357864,-3.795833 7.500004,-3.795833 z"
         id="path6890"
         sodipodi:nodetypes="sssssss"
         inkscape:label="bar"
         transform="translate(-2.1681806e-5,2.176)" /></g><g
       id="layer3"
       inkscape:label="blue snake"
       style="display:inline"
       transform="translate(17.171,2.176)"><path
         id="path1018"
         style="display:inline;fill:#306998;fill-opacity:1;fill-rule:nonzero;stroke:#306998;stroke-width:3.96875;stroke-linecap:round;stroke-dasharray:none;stroke-opacity:1"
         inkscape:label="bottom"
         d="m 28.942862,128.93631 c -2.955848,6.80172 -6.517581,15.12621 -6.555155,23.97063 v 5.2e-4 c 0.0047,5.99247 1.483694,11.78769 4.111377,16.92765 2.620776,5.12523 6.20551,9.57489 10.378178,13.21004 9.256286,8.17202 21.699312,12.5709 34.307466,11.48871 5.99532,-0.62593 11.330944,-2.2436 16.103927,-3.86488 4.80985,-1.55174 9.141009,-3.09088 13.172325,-3.64681 8.83215,-1.36012 37.82752,-2.95436 44.8293,2.59829 0.23846,-2.73259 -9.26338,-8.01373 -14.84354,-10.25673 -7.63707,-3.06981 -16.14795,-3.90494 -24.37887,-3.92793 -12.191792,-0.0341 -24.02419,6.96306 -36.141463,5.61671 -8.055613,-0.89506 -16.605237,-3.48587 -22.621358,-8.91728 -5.338905,-4.82003 -9.03236,-12.0261 -9.917741,-19.16421 -0.363946,-2.9342 1.190565,-7.75727 2.161625,-10.41177 -3.6425,-4.66561 -7.391109,-9.34002 -10.606071,-13.62294 z"
         sodipodi:nodetypes="cssccccccscssscc"
         transform="translate(-18.800437,-1.3942355)" /><path
         id="path1137"
         style="display:inline;fill:#306998;fill-opacity:1;fill-rule:nonzero;stroke:#306998;stroke-width:3.96875;stroke-linecap:round;stroke-dasharray:none;stroke-opacity:1"
         inkscape:label="top"
         d="M 64.179178,11.549403 C 51.918175,11.419359 37.920539,15.148226 29.632091,24.184306 21.796928,32.726215 19.423835,46.21293 20.546002,57.749599 c 1.065189,10.950904 14.6032,29.601671 14.6032,29.601671 0,0 6.964932,-8.819583 10.463444,-13.180075 -2.325749,-3.582801 -7.978989,-11.214935 -8.70875,-17.771242 -0.690193,-6.200821 -0.491474,-15.85721 4.339142,-18.207438 8.875145,7.92474 24.988913,11.046236 36.981142,7.296779 C 87.376392,42.627789 97.462268,34.644898 98.24874,24.835533 90.457517,15.178283 76.367997,11.678682 64.179178,11.549403 Z"
         sodipodi:nodetypes="aaaccacaca"
         transform="translate(-18.800437,-1.3942355)" /><path
         id="path2874"
         style="display:inline;fill:#ffd43b;fill-opacity:1;stroke-width:15;stroke-linecap:round"
         inkscape:label="eye"
         d="m 61.866335,20.678693 a 3.407409,3.407409 0 0 1 -3.407409,3.407408 3.407409,3.407409 0 0 1 -3.407408,-3.407408 3.407409,3.407409 0 0 1 3.407408,-3.407407 3.407409,3.407409 0 0 1 3.407409,3.407407 z"
         transform="translate(-18.800437,-1.3942355)" /><path
         style="display:inline;fill:#ffffff;stroke:#ffffff;stroke-width:0.264583px;stroke-linecap:round;stroke-linejoin:round;stroke-opacity:1"
         d="m 62.261889,37.06381 0.429752,6.584767 0.930325,-6.263545 z"
         id="path4212" /><path
         id="path8946"
         style="display:inline;fill:none;fill-opacity:1;stroke:#ff6600;stroke-width:1.676;stroke-linecap:round;stroke-linejoin:round;stroke-dasharray:none;stroke-opacity:1"
         d="m 103.37632,34.849619 c -2.95025,0.698062 -4.537398,2.252578 -6.958177,2.94993 -2.97002,0.85557 -6.064621,1.570511 -9.154001,1.476967 -2.84817,-0.08624 -8.341441,-1.869751 -8.341441,-1.869751 0,0 5.521465,1.574728 8.360174,1.912025 2.845802,0.33814 5.866409,-0.769812 8.596875,0.100523 2.199714,0.701158 4.55192,2.592907 5.69512,3.941931 0.0707,-2.197312 -4.57753,-5.010818 -4.57753,-5.010818 0,0 4.44295,-2.472727 6.37897,-3.500805 z"
         sodipodi:nodetypes="caacaacccc"
         inkscape:label="tongue"
         transform="translate(-18.800437,-1.3942355)" /></g><g
       inkscape:label="yellow snake"
       id="layer1"
       style="display:inline"
       transform="translate(-1.629437,0.7817645)"><path
         id="path6518"
         style="display:inline;fill:#ffd43b;fill-opacity:1;fill-rule:nonzero;stroke:#ffd43b;stroke-width:3.96875;stroke-linecap:round;stroke-dasharray:none;stroke-opacity:1"
         inkscape:label="bottom"
         d="M 186.41594,128.88929 175.83571,142.505 c 0,0 2.36989,7.33908 2.38538,10.99519 0.0456,3.45928 -0.92624,6.9913 -2.43654,10.11825 -1.61958,3.35357 -4.05203,6.35865 -6.76445,8.88886 -6.90004,6.32233 -15.73708,9.30616 -23.33811,9.07438 -4.24513,-0.0397 -9.15114,-0.76717 -13.46326,-2.21278 -4.5537,-1.52664 -8.72997,-0.78351 -12.97181,0.0548 -4.02169,0.79478 -8.03416,2.28007 -11.39311,4.63021 -3.85138,2.69468 -8.833612,8.63945 -11.908319,12.55221 -1.600291,2.03646 -1.099476,2.55507 1.102258,1.19269 4.183121,-2.5884 10.800431,-6.35712 15.308631,-7.33702 5.20523,-1.1314 11.15349,-0.81535 15.96337,0.73639 4.77301,1.62128 10.10857,3.23895 16.10392,3.86488 12.60821,1.08219 25.05119,-3.31669 34.30747,-11.48871 4.17267,-3.63515 7.7574,-8.08481 10.37818,-13.21004 2.62768,-5.13996 4.10637,-10.93518 4.11137,-16.92765 v -5.2e-4 c -0.55866,-8.51087 -6.80475,-24.54685 -6.80475,-24.54685 z"
         sodipodi:nodetypes="ccccccssssssccccscc" /><path
         id="path3486"
         style="display:inline;fill:#ffd43b;fill-opacity:1;fill-rule:nonzero;stroke:#ffd43b;stroke-width:3.96875;stroke-linecap:round;stroke-dasharray:none;stroke-opacity:1"
         inkscape:label="top"
         d="m 150.74637,11.549403 c 12.261,-0.130044 26.25864,3.598823 34.54708,12.634903 7.83517,8.541909 10.20826,22.028624 9.08609,33.565293 -1.06519,10.950904 -14.6032,29.601671 -14.6032,29.601671 0,0 -6.96493,-8.819583 -10.46344,-13.180075 2.32575,-3.582801 7.97899,-11.214935 8.70875,-17.771242 0.69019,-6.200821 0.49147,-15.85721 -4.33914,-18.207438 -8.87515,7.92474 -24.98892,11.046236 -36.98114,7.296779 -9.15222,-2.861505 -19.23809,-10.844396 -20.02456,-20.653761 7.79122,-9.65725 21.88074,-13.156851 34.06956,-13.28613 z"
         sodipodi:nodetypes="aaaccacaca" /><path
         id="path3480"
         style="display:inline;fill:#306998;fill-opacity:1;stroke-width:15;stroke-linecap:round"
         inkscape:label="eye"
         d="m 153.05921,20.678693 a 3.407409,3.407409 0 0 0 3.40741,3.407408 3.407409,3.407409 0 0 0 3.40741,-3.407408 3.407409,3.407409 0 0 0 -3.40741,-3.407407 3.407409,3.407409 0 0 0 -3.40741,3.407407 z" /><path
         id="path3780"
         style="color:#000000;fill:#ff6600;stroke-linecap:round;stroke-linejoin:round;-inkscape-stroke:none"
         d="m 120.56427,37.53422 c 0.0428,0.04714 0.13641,0.146899 0.17947,0.193772 0.11652,0.126805 0.23415,0.252374 0.35295,0.377238 0.11879,0.124864 0.2387,0.248653 0.35967,0.371553 0.12096,0.122901 0.24283,0.244954 0.36586,0.36587 0.12304,0.120915 0.24706,0.24076 0.37207,0.359668 0.12502,0.118907 0.2513,0.23699 0.37828,0.353983 0.12697,0.116993 0.25458,0.233241 0.38344,0.348299 0.0779,0.06956 0.15707,0.137862 0.23564,0.206706 2.04429,0.259853 3.58867,0.259911 5.36388,0.04619 2.62084,-0.315527 5.0956,-1.125847 7.67655,-1.945766 2.4e-4,-7.7e-5 0.0294,-0.0078 0.0294,-0.0078 1.06809,-0.326053 0.57975,-1.929573 -0.48834,-1.60352 0,0 -4.93639,1.556044 -7.49412,1.718758 -2.56231,0.05566 -5.68329,-0.215017 -7.71475,-0.784952 z"
         sodipodi:nodetypes="cssssssscaccccc"
         inkscape:label="mouth" /><path
         fill="#f2b200"
         d="m 124.70922,38.460869 -6.36847,1.663147 0.28794,1.10257 6.36847,-1.663146 z"
         id="path7636"
         style="stroke-width:0.143548" /><path
         fill="#dce5e5"
         d="m 121.7594,39.231225 -11.74664,3.067674 0.28794,1.102571 11.74664,-3.067674 z"
         id="path7638"
         style="stroke-width:0.170483" /><path
         fill="#ff8736"
         d="m 110.01276,42.298899 -0.97977,0.255869 0.28794,1.10257 0.97977,-0.255868 z"
         id="path7640"
         style="stroke-width:0.143548" /><path
         d="m 109.67699,31.048452 c 4.16964,2.767833 -3.14629,0.415889 -0.58783,10.993667 -0.33441,-4.468434 7.93644,-8.298948 8.05456,-13.707973 0.17438,-7.485995 -14.35806,-1.871253 -7.46673,2.714306 z"
         fill="#abc2c6"
         id="path7642"
         style="opacity:0.603965;stroke-width:0.253156" /></g></g></svg>
